<?xml version="1.0" encoding="utf-8"?>
<!-- Generator: Adobe Illustrator 22.1.0, SVG Export Plug-In . SVG Version: 6.00 Build 0)  -->
<svg version="1.1" id="Layer_1" xmlns="http://www.w3.org/2000/svg" xmlns:xlink="http://www.w3.org/1999/xlink" x="0px" y="0px"
	 viewBox="0 0 22.1 24" style="enable-background:new 0 0 22.1 24;" xml:space="preserve">
<style type="text/css">
	.st0{fill:#FEFEFE;}
	.st1{fill:#8D9198;}
	.st2{fill:#6EA5CE;}
	.st3{fill:#2D3E8D;}
	.st4{fill:#4B78B4;}
	.st5{fill:#5181BA;}
	.st6{fill:#E9E9E9;}
	.st7{fill:#5386BE;}
	.st8{fill:#D8D8D8;}
	.st9{fill:#C4C6C7;}
	.st10{fill:#466DAD;}
	.st11{fill:#5486BD;}
	.st12{fill:#3D5AA0;}
	.st13{fill:#3E5CA1;}
	.st14{fill:#3D5DA2;}
	.st15{fill:#D6D6D6;}
	.st16{fill:#93979E;}
	.st17{fill:#ADB0B4;}
	.st18{fill:#B9BBBE;}
	.st19{fill:#6197C6;}
	.st20{fill:#E3E3E3;}
	.st21{fill:#DADBDB;}
	.st22{fill:#B9BBBC;}
	.st23{fill:#ACAFB3;}
	.st24{fill:#A4A7AD;}
	.st25{fill:#A0A4A9;}
	.st26{fill:#FDFEFE;}
	.st27{fill:#FDFDFE;}
	.st28{fill:#7BB4D6;}
	.st29{fill:#F9FAFC;}
	.st30{fill:#FBFCFD;}
	.st31{fill:#4160A4;}
	.st32{fill:#5487BE;}
	.st33{fill:#FCFDFD;}
	.st34{fill:#D0D1D1;}
	.st35{fill:#FDFDFD;}
</style>
<g>
	<path class="st0" d="M13,11.8L13,11.8c0,0.6,0.2,1.2,0.1,1.7c-0.1,0.3-0.1,0.7,0,1c0.1,0.8,0,1.7-0.2,2.6c-0.1,0.2-0.2,0.5-0.4,0.7
		c-0.8,0.4-1.7,0.8-2.6,1.1c-0.4,0.2-0.8,0.3-1.1,0.5c-0.2,0.1-0.3,0.2-0.4,0c-0.1-0.1,0-0.3,0.1-0.4c0.1-0.1,0.1-0.2,0.2-0.3
		c0.3-0.6,0.5-1.2,0.8-1.9c0.2-0.4,0.2-0.5,0.7-0.2c0.4,0.2,0.9,0.4,1.4,0.6c-0.4-0.2-0.8-0.4-1.1-0.7c-0.4-0.2-0.4-0.4,0-0.5
		c0.2-0.1,0.4-0.2,0.6-0.4c-0.2,0-0.5,0.1-0.7,0.2c-0.2,0.1-0.4,0-0.3-0.2c0.1-0.5,0.1-1,0.2-1.4c0.1-0.5,0.2-1,0.2-1.4
		c0.1-0.1,0.1-0.1,0.2-0.2C11.3,12.3,12.1,11.9,13,11.8C12.9,11.8,13,11.8,13,11.8z"/>
	<path class="st1" d="M8.7,23.8c-2.4-0.2-4.7-0.7-6.9-2c-0.5-0.4-1.1-0.8-1.4-1.3c-0.5-0.7-0.5-1.4-0.1-2.2c0.4-0.8,1.1-1.5,1.9-2.1
		c0.1,0,0.1,0.1,0.1,0.1c-0.1,0.2-0.3,0.4-0.5,0.5c-0.4,0.4-0.7,0.8-0.8,1.3c-0.1,0.2-0.1,0.3,0.2,0.2c0.1-0.1,0.3-0.1,0.4-0.1
		c0.1,0.1,0.2,0.1,0.2,0.2c-0.1,0.2-0.4,0.2-0.5,0.3c-0.4,0.1-0.5,0.2-0.3,0.6c0.2,0.5,0.6,1,1,1.3c0.2,0.2,0.3,0.1,0.4-0.1
		c0.2-0.4,0.5-0.8,0.8-1.1c0.1-0.1,0.2-0.3,0.4-0.4c0.1,0,0.2,0.1,0.2,0.2c-0.1,0.4-0.4,0.6-0.5,0.9c-0.1,0.4-0.4,0.6-0.6,1
		c0.6-0.1,1.1-0.4,1.6-0.4c0.2,0.1,0.2,0.2,0.1,0.4c-0.4,0.2-0.8,0.2-1.3,0.4c0.3,0.2,0.6,0.4,0.9,0.5c0.4,0.2,0.8,0.3,1.2,0.5
		c0.3,0.1,0.5,0.1,0.6-0.2s0.3-0.6,0.5-0.8c0.4-0.1,0.4-0.1,0.4,0.4c-0.1,0.3-0.4,0.5-0.5,0.8c0.1,0.1,0.2,0,0.4,0.1
		C6.4,22.9,6.5,23,6.5,23c0.7,0.1,1.5,0.3,2.2,0.4c0.1,0,0.2,0,0.3,0.1C9.2,23.9,9,23.9,8.7,23.8z"/>
	<path class="st2" d="M6.3,11.8c0.4-0.8,0.8-1.6,1-2.5c0.1-0.4,0-0.7,0.1-1.1c0.2-0.1,0.2,0.1,0.4,0.2c0.1,0.1,0,0.3,0.1,0.5
		C8.3,8.4,8.7,8,9.2,7.6c0.1-0.1,0.2-0.2,0.4-0.3c0.2,0.2,0.5,0.2,0.7,0.4c0.1,0.4-0.1,0.6-0.2,0.9C10,8.8,9.8,8.8,9.6,8.6
		C9.5,8.5,9.6,8.3,9.6,8c-0.5,0.4-1,0.8-1.6,1.3C7.8,9.5,8,9.6,8.1,9.7c0.4,0.4,0.7,0.8,1.1,1.3c0.2,0.3,0.2,0.7,0.4,1
		c0.8-0.8,1.4-1.7,2.1-2.6c-0.3,0.1-0.5,0.4-0.9,0.4c-0.3-0.1-0.3-0.2-0.2-0.5c0.4-0.3,0.8-0.7,1.3-0.7c-0.1,0.4,0.2,0.7,0.1,1
		c0,0.1,0.1,0.1,0.1,0.1c0.1,0.3-0.2,0.4-0.3,0.6c-0.4,0.5-0.9,1-1.4,1.4c-0.2,0.2,0.1,0.2,0.1,0.2c-0.1,0.1-0.1,0.2-0.2,0.2
		c-0.4,0.1-0.7,0.2-1,0.2C9,12.3,9.1,12,9,11.8c-0.2-0.5-0.3-0.5-0.6-0.1c-0.2,0.2-0.5,0.5-0.7,0.8c-0.1,0.1-0.2,0.2-0.4,0.2
		c-0.1-0.1-0.2-0.1-0.3-0.2c0.1-0.4,0.5-0.6,0.7-0.8c-0.3,0.1-0.5,0.5-0.9,0.5C6.6,12.2,6.5,12,6.3,11.8z"/>
	<path class="st3" d="M16.4,5.4c2.3,0.8,4.3,2,5.6,4.3c-1.6,0.2-3.2,0.6-4.7,1c-0.2-0.1-0.2-0.2-0.2-0.4c0.1-0.2,0.3-0.2,0.5-0.3
		c1-0.2,2-0.4,2.9-0.5c0.2,0,0.4-0.1,0.7-0.1c0-0.2-0.1-0.3-0.2-0.4c-0.7-0.7-1.4-1.3-2.2-1.7c-0.3-0.2-0.4-0.1-0.5,0.2
		c-0.2,0.5-0.5,1-1,1.4c-0.2,0-0.3-0.2-0.3-0.4c0.1-0.4,0.4-0.5,0.5-0.8c0.1-0.1,0.2-0.2,0.2-0.5c-0.2-0.1-0.4,0.1-0.7,0.1
		C17,7.1,17,7,17,6.8c0.2-0.2,0.4-0.2,0.7-0.2c-0.4-0.2-0.8-0.3-1.1-0.5C16.4,5.9,16.1,5.7,16.4,5.4z"/>
	<path class="st4" d="M10.7,4.1c1,0.2,2,0.4,3.1,0.5c0.1,0,0.2,0.1,0.2,0.1c-0.1,0.2,0.3,0.4,0.2,0.7C14.2,5.7,14.2,6,14,6.4
		c-0.2,0.1-0.3,0.2-0.4-0.1c-0.1-0.3,0.1-0.5,0.1-0.9c-0.4,0.1-0.7,0.3-1,0.5c-0.2,0.1-0.5,0.4-0.8,0.4c-0.2-0.1-0.3-0.1-0.3-0.3
		c0.2-0.3,0.5-0.4,0.8-0.5c0.2-0.1,0.5-0.2,0.7-0.4c-0.9-0.2-1.7-0.4-2.6-0.5c-0.4-0.1-0.2,0.2-0.2,0.4c-0.1,0.1-0.1,0.1-0.2,0.1
		C9.8,5,9.9,4.6,9.7,4.5C9.5,4.4,9.3,4.3,9.2,4.3C8.4,4.2,7.7,4.1,6.9,3.8C6.9,3.8,6.9,3.8,6.9,3.7c0.1-0.2,0.4-0.2,0.5-0.4
		c0.1,0,0.1-0.1,0.1-0.1c0.1,0,0.2,0,0.2,0c0.1,0.3,0.4,0.3,0.7,0.4C9,3.7,9.6,3.8,10.1,3.9C10.3,4,10.6,3.8,10.7,4.1z"/>
	<path class="st5" d="M6.3,11.8c0.3,0,0.3,0.2,0.4,0.4c0,0.1-0.1,0.2-0.1,0.2c-0.5,0.3-0.8,0.8-1.1,1.2c0.4-0.4,0.9-0.7,1.3-1
		c0.1-0.1,0.1-0.1,0.2-0.1c0.1,0,0.2,0,0.2,0.2c-0.2,0.4-0.6,0.7-0.9,0.9c0.4-0.1,0.7-0.5,1.2-0.4c0.2,0.1,0.4,0.1,0.4,0.4
		c-0.1,0.1-0.2,0.2-0.4,0.2C7.4,14,7.2,14,7.1,14.1s-0.3,0.1-0.4,0.2c-0.4,0.2-0.7,0.4-1.1,0.5c-0.1,0.1-0.2,0.1-0.4,0.1
		c-0.1-0.3-0.4-0.5-0.7-0.6C5.1,13.5,5.8,12.7,6.3,11.8z"/>
	<path class="st6" d="M12.4,17.8c0.3-0.4,0.3-0.9,0.4-1.4c0.2-1-0.1-1.9,0.1-2.8c0.1-0.5-0.1-1,0-1.4c0-0.1,0.1-0.2,0.1-0.3
		c0.4,0.2,0.4,0.7,0.3,1c-0.1,0.7,0.4,1.3,0.2,1.8c-0.2,0.6-0.1,1.3-0.1,1.9c-0.1,0.7-0.2,1.3-0.2,1.9c0,0.1,0,0.1-0.1,0.2
		c-0.2,0-0.1-0.2-0.2-0.3c-0.1,0.1-0.1,0.4-0.4,0.4c-0.2-0.2,0.1-0.5,0-0.8C12.4,17.9,12.4,17.9,12.4,17.8z"/>
	<path class="st7" d="M9.1,4.3c0.2-0.1,0.4,0.1,0.6,0.2c0,0.2-0.1,0.2-0.2,0.3C9,5.1,8.7,5.5,8.3,5.8C8,6,8,6.2,8.3,6.3
		C8.4,6.7,8,6.7,7.8,6.8c-0.1,0-0.1,0.1-0.1,0.1C7.5,7,7.3,7,7.2,6.8C6.9,5.9,6.4,5.3,5.8,4.6c0-0.1,0.1-0.2,0.2-0.3
		C6.5,4.5,6.6,5,6.8,5.2C6.6,4.8,6.4,4.4,6.5,3.9c0.1-0.1,0.2-0.2,0.4-0.1v0.1C7.1,4.4,7.3,5,7.5,5.6c0.7-0.4,1.1-1,1.8-1.2
		C9.2,4.4,9.1,4.4,9.1,4.3z"/>
	<path class="st8" d="M8.4,3.7c-0.3,0-0.6-0.1-0.8-0.1c0.6-0.4,1.2-0.7,1.7-1C9,2.6,8.4,2.7,8,2.3C8,2.1,8.1,2,8.3,2
		C8.7,1.9,9,2.1,9.4,2.1C9.2,1.5,9,0.9,9,0.2c0.1-0.1,0.2,0,0.2,0.1c0.4,1.1,0.9,2.3,1.5,3.4c0.1,0.1,0.1,0.3,0.1,0.4
		c-0.2-0.1-0.5,0-0.7-0.1c0.2-0.2,0-0.2-0.1-0.4C9.8,2.9,9.8,2.9,9.2,3.3C8.9,3.5,8.7,3.6,8.4,3.7z"/>
	<path class="st9" d="M12.3,20.8c-0.2,0.6-0.4,1.2-0.7,1.7c-0.1-0.1-0.3,0-0.4-0.1c0-0.2,0.1-0.4,0.2-0.7c-0.4,0.2-0.7,0.3-1,0.5
		c-0.2,0.1-0.4,0.1-0.5,0.1c-0.1-0.1-0.2-0.1-0.2-0.2c0.1-0.2,0.2-0.2,0.4-0.2c0.4-0.1,0.8-0.3,1.2-0.4c-1-0.1-1.9-0.3-2.9-0.7
		c-0.2-0.1-0.4-0.1-0.5-0.3c0.1-0.2,0.4-0.1,0.4-0.3c0.7,0.1,1.3,0.5,2,0.6c0.3,0.1,0.7,0.2,1,0.2c0.2,0.1,0.4,0,0.5-0.2
		c0.1-0.1,0.1-0.1,0.1-0.2c0.1-0.1,0.1-0.2,0.3-0.2C12.4,20.4,12.3,20.6,12.3,20.8z"/>
	<path class="st10" d="M17.1,8.3c0,0.2,0.1,0.4,0.2,0.4c0.1,0.3-0.2,0.4-0.4,0.6c-0.2,0.3-0.5,0.5-0.8,0.8c0.4,0,0.7-0.3,1.1-0.1
		c0,0.1-0.1,0.3,0.1,0.4c-0.6,0.2-1.3,0.4-1.9,0.5C15,11,15,11,15.1,10.5c0.6-0.6,1.1-1.3,1.6-1.9C16.8,8.5,16.9,8.3,17.1,8.3z"/>
	<path class="st11" d="M15.2,10.5c-0.1,0.2-0.2,0.6,0.2,0.6c-0.7,0.2-1.3,0.4-2,0.6c-0.2,0.1-0.3,0.1-0.5,0.2h-0.1
		c-0.3,0-0.4-0.1-0.2-0.3c0.1-0.1,0.1-0.2,0.2-0.2c0.4-0.3,0.9-0.4,1.4-0.5c0.1-0.1,0.3,0,0.4-0.2c-0.2-0.2-0.5-0.4-0.7-0.7
		c-0.1-0.1-0.2-0.2-0.2-0.4c-0.1-0.1-0.1-0.3,0.1-0.4c0.1-0.1,0.2,0,0.4,0.1c0.1,0.1,0.2,0.1,0.2,0.2C14.7,9.7,15,10,15.2,10.5z"/>
	<path class="st12" d="M6.8,3.8C6.6,3.8,6.6,4,6.5,4C6,3.8,5.6,3.8,5.3,3.6c0.2,0.2,0.5,0.4,0.7,0.8c0,0.1-0.1,0.2-0.2,0.3
		C5.2,4.1,4.7,3.6,4.1,3C4,2.9,3.8,2.8,3.9,2.6c0.3-0.1,0.4,0.2,0.7,0.2C5.3,3,5.9,3.2,6.5,3.3c0.2,0.1,0.5,0.1,0.7,0.3
		C7.1,3.8,6.9,3.8,6.8,3.8z"/>
	<path class="st13" d="M4.5,14.2c0.4,0,0.7,0.1,0.7,0.6c-0.1,0.2-0.4,0.2-0.5,0.4c-0.2,0.1-0.5,0.2-0.7,0.4
		c-0.5,0.2-0.9,0.5-1.4,0.8c-0.1,0.1-0.2,0.1-0.3,0.1c-0.1-0.1-0.1-0.1-0.1-0.1C3,15.7,3.8,14.9,4.5,14.2z"/>
	<path class="st14" d="M14.2,5.3c0-0.2-0.2-0.2-0.2-0.2c-0.1-0.2-0.2-0.3,0.1-0.4c0.8,0.2,1.6,0.4,2.4,0.7c-0.2,0.3,0.1,0.4,0.2,0.7
		c-0.1,0.1-0.2,0.1-0.4,0c-0.6-0.2-1.2-0.4-1.8-0.5C14.3,5.5,14.2,5.4,14.2,5.3z"/>
	<path class="st15" d="M12.3,20.8c-0.3-0.7-0.4,0.1-0.5,0.1l-0.1-0.1c0.1-0.7,0.2-1.4,0.7-2.1c0.2,0,0.2-0.2,0.2-0.4
		c0.1-0.1,0.1-0.2,0.2-0.2c0.2,0,0.1,0.1,0.1,0.2c0,0.1-0.1,0.2,0.1,0.3c-0.1,0.6-0.3,1.1-0.5,1.7C12.5,20.5,12.5,20.6,12.3,20.8z"
		/>
	<path class="st16" d="M4.5,2.9C4.2,2.9,4.1,2.6,3.8,2.6C3.9,2.3,4.1,2.1,4.4,2c0.5-0.4,1.1-0.7,1.8-1c0.2-0.1,0.2,0,0.3,0.1
		C6.4,1.3,6.3,1.4,6.2,1.4C6,1.5,5.9,1.5,5.9,1.7C5.8,1.9,5.6,1.9,5.4,2C5,2.2,4.8,2.6,4.5,2.9z"/>
	<path class="st17" d="M11.3,22.4c0.1,0,0.2-0.1,0.4,0.1c-0.2,0.4-0.4,0.9-0.6,1.3c-0.1,0.1-0.2,0.2-0.3,0.2c-0.7,0-1.3,0-2-0.2
		c0.2,0,0.4,0.1,0.4-0.2c0.1-0.1,0.3-0.1,0.4-0.1c0.2,0,0.4,0.1,0.5,0.1c0.6,0.1,0.5,0.1,0.8-0.4C11,22.9,11,22.6,11.3,22.4z"/>
	<path class="st18" d="M6.4,1.2C6.3,1.1,6.3,1.1,6.2,1.1C7,0.6,7.9,0.3,8.8,0C9-0.1,9.2,0,9.2,0.3C9.1,0.3,9,0.3,9,0.3
		c-0.7,0.4-1.5,0.7-2.2,1C6.6,1.2,6.5,1.3,6.4,1.2z"/>
	<path class="st19" d="M7.1,6.8c0.2,0.1,0.4,0.1,0.5,0c0.2,0.5,0.3,1,0.1,1.6c-0.1,0-0.2-0.1-0.3-0.2C7.3,7.7,7.2,7.3,7.1,6.8z"/>
	<path class="st20" d="M7.5,13.8c0.1-0.2,0.2-0.1,0.4-0.2c0.1,0,0.1,0.1,0.1,0.1c0.3,0.6,0.6,1.1,1.1,1.6c0.2,0.2,0.3,0.2,0.4-0.1
		c0.2-0.8,0.5-1.6,0.4-2.3c0.1-0.2,0.2-0.2,0.4-0.1c0,0.2,0,0.5-0.1,0.8s0.1,0.5-0.1,0.8c-0.1,0.4-0.1,0.8-0.2,1.1
		c-0.1,0.2,0.1,0.3,0.2,0.2c0.3-0.2,0.6-0.1,1-0.4c-0.2,0.5-0.7,0.5-1,0.9c0.5,0.4,1.1,0.7,1.6,1c-0.2,0.1-0.2,0.2-0.4,0.1
		c-0.5-0.2-1-0.4-1.4-0.7c-0.2-0.2-0.3-0.1-0.4,0.2c-0.2,0.7-0.5,1.3-0.8,1.9c-0.2-0.1,0.1-0.3-0.1-0.5c-0.1-0.1-0.2,0.1-0.3,0
		c0.1-0.5,0.4-0.8,0.5-1.3c-0.2,0.1-0.5,0.3-0.8,0.2c-0.1-0.1,0-0.2,0-0.2c-0.2-0.1-0.5,0.3-0.8,0c0.1-0.2,0.2-0.2,0.3-0.2
		c0.4-0.2,0.9-0.4,1.4-0.5c-0.5-0.5-1-1-1.3-1.6C7.5,14.3,7.4,14,7.5,13.8z"/>
	<path class="st19" d="M10.2,12.7c-0.2,0-0.3,0.1-0.4,0.2c-0.6,0.4-1.3,0.7-2,0.8v-0.1c0.1-0.3-0.2-0.2-0.4-0.4c0-0.1,0-0.1,0-0.1
		c0.5-0.3,1-0.6,1.6-0.6c0.3-0.2,0.7-0.2,1-0.3c0.1-0.1,0.3,0,0.4-0.2c0.1-0.1,0.2-0.2,0.2-0.2c0.6-0.2,1.3-0.4,1.9-0.6
		c0.1-0.1,0.2-0.1,0.2,0.1c0,0.1-0.1,0.2-0.2,0.3c-0.2,0.2-0.1,0.3,0.2,0.3C12,12.1,11.1,12.4,10.2,12.7z"/>
	<path class="st9" d="M8.3,18.2c0.2,0,0.2-0.2,0.4-0.2c0.1,0.2-0.1,0.5-0.1,0.7c-0.1,0.2-0.2,0.5-0.3,0.7c0.2,0.1,0.2-0.1,0.4,0
		c0.1,0,0.2-0.1,0.4-0.1c0.2-0.1,0.4,0,0.3,0.2c-0.2,0.2-0.6,0.4-0.9,0.5C8.4,20,8.3,20,8.2,20.2c-0.3-0.1-0.5-0.3-0.8-0.4
		c0.2-0.5,0.5-1,0.8-1.4C8.2,18.2,8.3,18.2,8.3,18.2z"/>
	<path class="st21" d="M9.3,19.5c0-0.2,0-0.3-0.2-0.2c-0.1,0.1-0.2,0.1-0.4,0.1c0.5-0.3,1.1-0.4,1.6-0.7c0.7-0.3,1.4-0.5,2-0.8l0,0
		c0.1,0.2-0.1,0.3-0.2,0.4c-0.4,0.2-0.8,0.4-1.2,0.6c-0.4,0.2-0.8,0.4-1.1,0.5C9.7,19.5,9.5,19.6,9.3,19.5z"/>
	<path class="st22" d="M7.4,19.7c0.4-0.1,0.5,0.3,0.8,0.4c0.1,0,0.1,0,0.1,0c0,0.4-0.2,0.2-0.4,0.2c-0.3,0.5-0.6,1-1,1.4
		c-0.1,0.1-0.2,0.3-0.4,0.3c0-0.2,0.2-0.5-0.2-0.4c-0.1-0.3,0.2-0.4,0.2-0.6c0.1-0.1,0.2-0.3,0.2-0.4c-0.2-0.1-0.5,0.2-0.7,0.1
		C6,20.7,6,20.5,6,20.3C6,20.1,6.4,20.2,6.5,20C6,19.6,5.4,19.2,5,18.8c-0.1-0.1-0.2-0.1-0.4,0.1c-0.2,0.2-0.4,0.4-0.5,0.6
		c-0.1,0.1-0.2,0.2-0.4,0.2c-0.1-0.1-0.1-0.2-0.3-0.2c0-0.4,0.4-0.6,0.5-1c-0.2-0.1-0.5,0.1-0.7,0c-0.1-0.1-0.1-0.2-0.1-0.4
		c0.1-0.2,0.4-0.2,0.5-0.2c0.3-0.1,0.4-0.2,0.2-0.5c-0.2-0.4-0.2-0.8-0.2-1.3c0-0.2,0.1-0.4,0.1-0.5c0.2-0.1,0.4-0.2,0.7-0.4
		c0.2,0.1,0.1,0.3,0.1,0.5c-0.1,0.5,0,1,0.3,1.5c0.1,0,0.1,0,0.1,0c0.3-0.2,0.5-0.2,0.7,0.1c0.1,0,0.1,0.1,0.1,0.1
		c0.2,0.2,0.1,0.4-0.1,0.5c-0.2,0.1-0.2,0.2,0,0.4c0.4,0.4,0.9,0.8,1.4,1.2C7.2,19.5,7.4,19.6,7.4,19.7z"/>
	<path class="st0" d="M3.9,15.5c0,0.7-0.1,1.4,0.4,2c0.1,0.2-0.1,0.2-0.2,0.2c-0.2,0.1-0.5,0.1-0.8,0.2c-0.5,0.4-1.1,0.4-1.7,0.5
		c-0.2,0.1-0.4,0.1-0.6,0.1c-0.3,0.1-0.3,0-0.2-0.2c0.2-0.8,0.8-1.4,1.4-2C2.8,16.1,3.3,15.8,3.9,15.5z"/>
	<path class="st0" d="M6.5,22.1c0.4-0.4,0.7-0.9,1-1.4c0.1-0.1,0.1-0.2,0.3-0.2c0.8,0.4,1.7,0.5,2.5,0.7c0.4,0.1,0.7,0.1,1,0.2
		c-0.7,0.2-1.2,0.4-1.8,0.6C9.5,22,9.5,22,9.3,22.1c-0.9,0.2-1.7,0.5-2.6,0.7c-0.1,0-0.2,0-0.3,0c-0.2,0-0.4,0.1-0.5,0.1
		C6,22.6,6.3,22.4,6.5,22.1z"/>
	<path class="st0" d="M3.8,19.6c0.3-0.3,0.5-0.6,0.8-1c0.1-0.2,0.2-0.2,0.5,0c0.5,0.5,1,1,1.7,1.3c-0.2,0.2-0.5,0.2-0.7,0.4
		c-0.5,0.4-1.2,0.5-1.9,0.7c-0.5,0.1-0.9,0.3-1.4,0.4c-0.1,0.1-0.2,0.1-0.4,0c-0.1-0.1,0.1-0.2,0.1-0.3C3,20.6,3.4,20.1,3.8,19.6z"
		/>
	<path class="st0" d="M3.3,18.4c0.3,0,0.5-0.2,0.9-0.1c-0.2,0.4-0.5,0.8-0.8,1.1c-0.4,0.5-0.8,1.1-1.1,1.6c-0.1,0.2-0.2,0.2-0.4,0.1
		c-0.5-0.5-0.9-1-1.1-1.6C0.6,19.1,0.6,19,1.1,19c0.2-0.1,0.4-0.1,0.6-0.2C2.3,18.5,2.8,18.4,3.3,18.4z"/>
	<path class="st0" d="M11.3,22.4c-0.1,0.2-0.2,0.5-0.3,0.8c-0.2,0.6-0.2,0.6-0.8,0.5c-0.4-0.1-0.7-0.1-1-0.1
		c-0.9-0.1-1.7-0.4-2.6-0.5l0,0c0,0,0,0,0-0.1C6.6,23,6.7,23,6.8,23c1-0.2,1.9-0.4,2.8-0.7c0.1,0,0.2,0,0.2,0
		c0.6-0.1,1.1-0.4,1.7-0.7C11.5,21.8,11.3,22.1,11.3,22.4z"/>
	<path class="st0" d="M6,20.8c0.3-0.1,0.6-0.2,1-0.2c-0.2,0.5-0.5,0.8-0.7,1.3C6.1,22,6,22.1,5.9,22.4c-0.4,0.6-0.4,0.5-1,0.4
		c-0.7-0.2-1.4-0.5-2.2-1c0.5-0.1,1-0.3,1.6-0.4C4.8,20.9,5.4,20.7,6,20.8z"/>
	<path class="st23" d="M9.8,22.2c-1,0.4-2,0.6-2.9,0.8c-0.1,0.1-0.2,0.1-0.4,0.1C6.4,23,6.4,23,6.4,22.9c1-0.4,2.1-0.7,3.2-0.9
		C9.7,22,9.8,22.1,9.8,22.2z"/>
	<path class="st24" d="M6,20.8c-0.5,0.1-1.1,0.3-1.7,0.5C4.4,21.1,4.3,21,4.1,21c0.6-0.3,1.2-0.5,1.9-0.7C6.1,20.5,6.2,20.6,6,20.8z
		"/>
	<path class="st25" d="M3.3,18.4c-0.5,0.1-1,0.3-1.6,0.4c0-0.2-0.1-0.2-0.2-0.2c0.5-0.2,1.1-0.4,1.7-0.5C3.4,18.2,3.4,18.3,3.3,18.4
		z"/>
	<path class="st19" d="M7.7,6.8c0.1-0.2,0.5-0.1,0.5-0.5c0.2-0.1,0.3-0.1,0.5,0c0.2,0.1,0.5,0.2,0.8,0.2c0.4,0.1,0.5,0.1,0.5-0.4
		c0-0.2,0-0.5,0-0.7c0-0.1-0.1-0.2,0.1-0.4c0.1,0,0.2-0.1,0.2-0.1c0.4,0.2,0.3,0.6,0.3,0.9c0.1,0.6,0.1,0.6,0.5,0.3
		C11.2,6.2,11.4,6,11.6,6c0,0.2,0.2,0.2,0.2,0.3c-0.1,0.2-0.3,0.3-0.5,0.5C11.3,7,11.1,7,11,7.1c0.4,0.2,0.8,0.4,1.2,0.6
		c0.2,0.1,0.4,0.2,0.5,0.4c0,0.4,0.2,0.6,0.4,0.8c0.1,0.1,0.2,0.2,0.2,0.4c-0.4-0.1-0.7,0-0.9,0.4c-0.1,0.1-0.1,0.1-0.2,0.1
		c-0.3,0-0.4-0.1-0.2-0.4c0.1-0.1,0.1-0.2,0-0.3c-0.5-0.2-0.1-0.4,0-0.5c-0.4-0.3-0.8-0.5-1.3-0.7c-0.1-0.1-0.2-0.1-0.4-0.2
		C9.9,7.7,9.6,7.6,9.5,7.3c-0.1,0.1-0.2,0.1-0.3,0C8.7,7.2,8.3,7,7.8,6.9C7.8,7,7.7,7,7.7,6.8z"/>
	<path class="st0" d="M12.2,9.8c0.1-0.1,0.2-0.2,0.2-0.3c0.4-0.5,0.4-0.5,0.8-0.2c0.4,0.1,0.5,0.4,0.7,0.5c0.2,0.2,0.4,0.4,0.7,0.6
		c0.2,0.1,0.2,0.2-0.1,0.3c-0.5,0.2-1.1,0.4-1.7,0.5c-0.8,0.2-1.6,0.5-2.4,0.8c-0.1,0-0.2,0.1-0.5,0.1C10.8,11.4,11.6,10.7,12.2,9.8
		z"/>
	<path class="st26" d="M10.8,9.7c0.3-0.2,0.7-0.4,1-0.5c-0.7,1.1-1.4,2.1-2.3,3.1c-0.1-0.5-0.1-0.9-0.3-1.3c-0.2-0.2-0.2-0.4,0-0.5
		C9.7,10.3,10.2,9.9,10.8,9.7z"/>
	<path class="st27" d="M7.7,6.8C8.3,7,8.9,7.3,9.6,7.4C9,8,8.4,8.6,7.7,9.2c0-0.3,0-0.5,0-0.8C7.7,7.9,7.6,7.3,7.7,6.8
		C7.6,6.8,7.7,6.8,7.7,6.8z"/>
	<path class="st27" d="M9.2,12.6C8.6,12.8,8,13,7.5,13.3c-0.5,0.1-1,0.4-1.6,0.7c0.5-0.4,0.9-0.8,1.3-1.1c0.5-0.4,0.8-0.8,1.2-1.3
		c0.2-0.2,0.2-0.2,0.4,0.1C9,11.8,9.2,12.2,9.2,12.6z"/>
	<path class="st27" d="M10.3,7.7c0.6,0.1,1.1,0.5,1.7,0.8c0.1,0,0,0.1,0,0.1c-0.5,0.1-0.8,0.4-1.3,0.7c-0.2,0.3-0.5,0.4-0.8,0.6
		C9.8,10,9.7,10,9.6,9.9c-0.1-0.1-0.1-0.2,0-0.2c0.2-0.4,0.2-0.7,0.5-1C10.1,8.3,10.3,8.1,10.3,7.7z"/>
	<path class="st27" d="M8.1,9.9C7.7,9.7,7.8,9.5,8,9.4c0.6-0.5,1.1-1,1.7-1.4C9.7,8.2,9.6,8.5,9.6,8.7c-0.1,0.7-0.4,1.1-0.7,1.7
		c-0.1,0.2-0.3,0.2-0.4,0C8.4,10.1,8.3,10,8.1,9.9z"/>
	<path class="st28" d="M8.1,9.9C8.1,10,8.3,10,8.4,10.1C8.8,10.4,8.8,10.4,9,10c0.2-0.4,0.4-0.9,0.6-1.3c0.1,0.1,0.3,0.1,0.4,0
		C10,9.1,9.8,9.4,9.5,9.9c0.4-0.2,0.8-0.4,1.1-0.6c0,0.2-0.2,0.4,0.2,0.4c-0.5,0.3-1,0.6-1.4,0.8C9,10.7,9,10.9,9.1,11.2
		C8.8,10.8,8.4,10.3,8.1,9.9z"/>
	<path class="st29" d="M7,12.6c-0.5,0.5-1.1,1-1.8,1.3c0.5-0.5,0.9-1.2,1.6-1.6c0.4-0.2,0.7-0.5,1.1-0.7l0.1,0.1
		C7.6,11.9,7.3,12.2,7,12.6z"/>
	<path class="st30" d="M6.6,12c0.3-0.5,0.5-1,0.7-1.4c0.1-0.2,0.1-0.2,0.3-0.1l0.1,0.1c0.5,0.3,0.5,0.3,0.1,0.7
		C7.4,11.4,7.1,11.6,6.6,12z"/>
	<path class="st0" d="M17.3,10.1c-0.5,0-0.9,0.2-1.4,0.2c0.5-0.6,1.1-1,1.5-1.7c0.4-0.5,0.7-1.1,1-1.6c0.1-0.2,0.1-0.2,0.3-0.1
		c1.1,0.7,2.2,1.4,3,2.5c-1,0.1-1.9,0.2-2.8,0.4C18.3,9.9,17.8,10,17.3,10.1z"/>
	<path class="st0" d="M15.2,10.5c-0.2-0.4-0.5-0.7-0.8-1C14.1,9.4,14,9.2,13.7,9c-0.4-0.3-0.4-0.5,0.1-0.7c0.5-0.2,1-0.4,1.4-0.6
		c0.7-0.2,1.3-0.5,1.9-0.5C17.5,7.1,17.7,7,18,7c-0.2,0.5-0.7,0.9-1,1.4c-0.5,0.7-1,1.3-1.6,1.9C15.5,10.3,15.4,10.6,15.2,10.5z"/>
	<path class="st0" d="M14.2,5.3C15,5.6,15.8,5.8,16.6,6c0.4,0.2,0.8,0.3,1.2,0.5c-0.4,0.1-0.5,0.2-0.8,0.2c-0.5,0.3-1.2,0.4-1.8,0.6
		c-0.5,0.2-1,0.4-1.5,0.5c-0.1,0.1-0.2,0.1-0.4,0c-0.1-0.1,0-0.3,0.1-0.4c0.2-0.4,0.2-0.8,0.5-1.1C14.1,6,14,5.6,14.2,5.3z"/>
	<path class="st31" d="M15.2,7.3c0.6-0.2,1.2-0.4,1.9-0.5C17,6.9,17.1,7,17.2,7c-0.7,0.2-1.3,0.4-1.9,0.7C15.1,7.6,15,7.5,15.2,7.3z
		"/>
	<path class="st0" d="M12.7,8.1c-0.5-0.4-1.2-0.7-1.9-0.9c0.4-0.3,0.8-0.5,1.1-0.8c0.6-0.4,1.2-0.8,1.9-1.1c0,0.4-0.2,0.7-0.2,1
		C13.5,7,13.2,7.5,12.9,8C12.8,8,12.8,8.1,12.7,8.1z"/>
	<path class="st27" d="M11.7,6c-0.4,0.1-0.7,0.4-1,0.6c-0.2,0.1-0.3,0.1-0.3-0.1c0-0.5,0-1-0.2-1.4C10.1,5,10.1,4.8,10,4.5
		c1.1,0.1,2.2,0.4,3.4,0.6C12.8,5.5,12.2,5.7,11.7,6z"/>
	<path class="st0" d="M9.9,5.1C10,5.6,10,6.1,10,6.6c0,0.2-0.1,0.3-0.3,0.2c-0.5-0.2-1-0.3-1.6-0.4c-0.1,0-0.3,0-0.4-0.1S7.9,6,8,6
		c0.5-0.5,1.1-0.9,1.7-1.4C9.9,4.7,9.8,5,9.9,5.1z"/>
	<path class="st32" d="M12.7,8.1c0.4-0.5,0.6-1.1,0.9-1.7c0.1,0.2,0.2,0.2,0.3,0.1c-0.1,0.5-0.4,1-0.5,1.6c0.7-0.2,1.2-0.5,1.9-0.7
		c0,0.1,0,0.3,0.1,0.4c-0.6,0.2-1.2,0.5-1.9,0.8c0.4,0.4,0.7,0.6,1,1c-0.1,0-0.2-0.1-0.3-0.2c-0.1-0.1-0.2-0.2-0.3-0.1
		c-0.1,0.1-0.1,0.2,0,0.4c0.1,0.1,0.1,0.2,0.2,0.4c-0.2-0.2-0.5-0.4-0.7-0.5c-0.1-0.2-0.3-0.3-0.4-0.5C12.7,8.6,12.6,8.3,12.7,8.1z"
		/>
	<path class="st0" d="M8,2.3c0.4,0.2,1,0.1,1.5,0.3c-0.7,0.3-1.2,0.8-1.9,1c-0.1,0-0.2,0-0.2-0.1c-0.7-0.4-1-0.9-1.6-1.4
		C5.7,2,5.7,1.8,6,1.8C6.6,2,7.4,2,8,2.3z"/>
	<path class="st27" d="M9.1,4.3c0.1,0.1,0.2,0.1,0.3,0.1C8.7,4.8,8,5.3,7.4,5.9C7.2,5.2,7,4.5,6.7,3.9l0.1-0.1
		C7.5,4.1,8.3,4.2,9.1,4.3z"/>
	<path class="st18" d="M8,2.3C7.3,2.3,6.6,2.1,5.8,2c0.5,0.5,1,1.1,1.6,1.6c-0.1,0-0.1,0-0.1,0.1C7,3.6,6.8,3.5,6.5,3.4
		C6.1,3,5.9,2.6,5.5,2.3c0-0.1-0.1-0.2-0.1-0.4c0.2-0.1,0.4-0.1,0.4-0.4c0-0.1,0.2-0.2,0.4-0.2c0.1,0.2,0.2,0.2,0.4,0.2
		C7,1.7,7.4,1.7,7.8,1.8C7.9,1.8,8.1,1.8,8.2,2C8.2,2.1,8.1,2.2,8,2.3z"/>
	<path class="st33" d="M8.4,3.7c0.4-0.4,0.9-0.5,1.3-1c0.3,0.4,0.4,0.8,0.7,1.1c0.1,0.2-0.2,0.1-0.2,0.1C9.5,3.9,9,3.8,8.4,3.7z"/>
	<path class="st0" d="M7.5,13.8c0.1,0.7,0.5,1.1,0.9,1.6c0.2,0.2,0.5,0.4,0.7,0.7c-0.7,0.3-1.3,0.5-1.9,0.8c-0.5,0.3-1,0.5-1.6,0.5
		l0,0c-0.1-0.2,0-0.3,0.1-0.4c0.4-0.7,0.8-1.4,1.1-2.2c0.1-0.2,0.2-0.5,0.2-0.8C7.2,13.9,7.4,13.9,7.5,13.8z"/>
	<path class="st0" d="M4.9,17.3c-0.4-0.5-0.5-1.1-0.4-1.8c0-0.1,0-0.2,0.1-0.4C4.8,15,5,14.9,5.2,14.8c0.5-0.2,1-0.4,1.5-0.7
		c0.1,0.1,0.1,0.2,0,0.3C6.2,15.4,5.7,16.5,4.9,17.3z"/>
	<path class="st34" d="M4.9,17.3c0.6-0.9,1.1-1.8,1.6-2.8c0.1-0.1,0.1-0.2,0.1-0.4c0.1-0.1,0.2-0.1,0.4-0.2c0.1,0.2,0,0.5-0.1,0.7
		c-0.4,0.9-0.8,1.7-1.3,2.6C5.3,17,5.3,17,4.9,17.3z"/>
	<path class="st0" d="M8.3,20.2L8.3,20.2c-0.1-0.1-0.1-0.1,0-0.2c0.4-0.2,0.7-0.3,1.1-0.5c0.9-0.4,1.8-0.8,2.7-1.3
		c0.2-0.1,0.4-0.1,0.4-0.4c0.4,0.3,0,0.5,0,0.8c-0.2,0.7-0.4,1.4-0.6,2.2c-0.1,0.3-0.2,0.4-0.6,0.3C10.2,20.9,9.2,20.6,8.3,20.2z"/>
	<path class="st29" d="M5.9,4.4C5.7,4.1,5.3,3.8,5,3.5c0.5,0.1,0.8,0.2,1.3,0.3C6.3,3.8,6.4,3.9,6.5,4c0.1,0.5,0.3,1,0.4,1.4
		C6.5,5.1,6.3,4.7,5.9,4.4z"/>
	<path class="st0" d="M8.1,2C7.4,1.8,6.7,1.7,6,1.6c0-0.1,0.2-0.1,0.2-0.2c0.1-0.1,0.2-0.1,0.2-0.2c0.8-0.3,1.6-0.7,2.3-1
		C8.7,0.2,8.9,0,9,0.2c0.1,0.7,0.2,1.3,0.5,2C9,2.1,8.6,2,8.1,2z"/>
	<path class="st35" d="M5.4,1.9c0.4,0.4,0.7,0.8,1,1.3c0.1,0.1,0.2,0.1,0.1,0.2c-0.7-0.1-1.3-0.2-2-0.5C4.7,2.4,5,2.1,5.4,1.9z"/>
	<path class="st0" d="M7.4,19.7c-0.7-0.4-1.3-0.9-1.9-1.5c-0.2-0.2-0.2-0.4,0.1-0.4c0.7-0.4,1.5-0.7,2.3-0.7c0.3-0.1,0.7-0.2,1-0.4
		c-0.2,0.5-0.5,1-0.7,1.5C8.1,18.7,7.8,19.3,7.4,19.7z"/>
	<path class="st0" d="M7.8,13.7c0.7-0.3,1.3-0.5,2-0.8c0.2,0.2,0.1,0.5,0.1,0.8c-0.1,0.6-0.3,1.2-0.5,1.9c-0.1,0.2-0.1,0.3-0.3,0.1
		C8.6,15,8.1,14.4,7.8,13.7z"/>
	<path class="st34" d="M8,17.1c-0.8,0.3-1.6,0.6-2.3,0.7c0.1-0.2,0.2-0.4,0-0.5c0.5-0.2,1-0.4,1.6-0.5c0.2,0.1,0.4-0.1,0.6-0.1
		c0.1,0,0.2-0.1,0.4,0C8.3,16.9,8.1,16.9,8,17C8,17,8,17,8,17.1z"/>
</g>
</svg>
